<svg xmlns="http://www.w3.org/2000/svg" version="1.1" xmlns:xlink="http://www.w3.org/1999/xlink" xmlns:svgjs="http://svgjs.dev/svgjs" width="2000" height="474" viewBox="0 0 2000 474"><g transform="matrix(1,0,0,1,-1.2121212121212466,0.05238871820117197)"><svg viewBox="0 0 396 94" data-background-color="#ffffff" preserveAspectRatio="xMidYMid meet" height="474" width="2000" xmlns="http://www.w3.org/2000/svg" xmlns:xlink="http://www.w3.org/1999/xlink"><g id="tight-bounds" transform="matrix(1,0,0,1,0.2400000000000091,-0.010389323862682431)"><svg viewBox="0 0 395.52 94.02077864772538" height="94.02077864772538" width="395.52"><g><svg viewBox="0 0 480.4387159612137 114.20717578677862" height="94.02077864772538" width="395.52"><g transform="matrix(1,0,0,1,84.91871596121369,15.78405975056058)"><svg viewBox="0 0 395.52 82.63905628565746" height="82.63905628565746" width="395.52"><g id="textblocktransform"><svg viewBox="0 0 395.52 82.63905628565746" height="82.63905628565746" width="395.52" id="textblock"><g><svg viewBox="0 0 395.52 49.01265203090339" height="49.01265203090339" width="395.52"><g transform="matrix(1,0,0,1,0,0)"><svg width="395.52" viewBox="2.64 -39.06 319.13 39.550000000000004" height="49.01265203090339" data-palette-color="url(#11dc88b8-2fed-4c29-9e74-e39516044aeb)"></svg></g></svg></g><g transform="matrix(1,0,0,1,0,60.583362871750936)"><svg viewBox="0 0 395.52 22.055693413906525" height="22.055693413906525" width="395.52"><g transform="matrix(1,0,0,1,0,0)"><svg width="395.52" viewBox="0.75 -37.5 812.36 45.3" height="22.055693413906525" data-palette-color="#50a060"><path d="M0.75-34.05L0.75-35 15.45-35Q23-35 26.7-32.83 30.4-30.65 30.4-25.05L30.4-25.05Q30.4-18.85 25.9-16.5L25.9-16.5Q21.7-14.35 14.15-14.35L14.15-14.35 13.75-14.35 13.75-0.95 20-0.95 20 0 0.75 0 0.75-0.95 4-0.95 4-34.05 0.75-34.05ZM15.1-34.05L13.75-34.05 13.75-15.3 14.8-15.3Q17.8-15.3 18.95-17.35 20.1-19.4 20.1-24L20.1-24 20.1-26.4Q20.1-30.65 19.03-32.35 17.95-34.05 15.1-34.05L15.1-34.05ZM124.24-22.9L122.19-22.9 122.19-23.8 137.14-23.8 137.14-22.9 133.99-22.9 139.99-6.3 145.39-22.9 142.04-22.9 142.04-23.8 148.79-23.8 148.79-22.9 146.59-22.9 139.19 0 133.49 0 124.24-22.9ZM242.52-7.15L242.52-7.15 242.52-22.9 239.77-22.9 239.77-23.8 242.52-23.8 242.52-30.25 251.82-32.55 251.82-23.8 258.32-23.8 258.32-22.9 251.82-22.9 251.82-6.05Q251.82-3.7 252.3-2.6 252.77-1.5 254.27-1.5 255.77-1.5 256.9-3 258.02-4.5 258.37-7.1L258.37-7.1 259.22-7Q258.82-3.55 257.02-1.53 255.22 0.5 251.07 0.5 246.92 0.5 244.72-1.15 242.52-2.8 242.52-7.15ZM354.26 7.8L354.26 7.8 353.66 7.05Q356.76 4.4 357.71 2.93 358.66 1.45 358.66-0.33 358.66-2.1 357.11-2.3L357.11-2.3 354.71-0.15Q353.56-0.55 352.63-1.58 351.71-2.6 351.71-4.23 351.71-5.85 352.88-7 354.06-8.15 356.13-8.15 358.21-8.15 359.51-6.55 360.81-4.95 360.81-2.3 360.81 0.35 359.26 2.8 357.71 5.25 354.26 7.8ZM554.58-33.9L554.58-35 572.58-35 572.58-33.9 567.28-33.9 567.28-1.1 569.08-1.1Q573.33-1.1 575.86-3.7 578.38-6.3 580.98-11.7L580.98-11.7 582.03-11.7 581.08 0 554.58 0 554.58-1.1 557.53-1.1 557.53-33.9 554.58-33.9ZM677.07-7.15L677.07-7.15 677.07-22.9 674.32-22.9 674.32-23.8 677.07-23.8 677.07-30.25 686.37-32.55 686.37-23.8 692.87-23.8 692.87-22.9 686.37-22.9 686.37-6.05Q686.37-3.7 686.84-2.6 687.32-1.5 688.82-1.5 690.32-1.5 691.44-3 692.57-4.5 692.92-7.1L692.92-7.1 693.77-7Q693.37-3.55 691.57-1.53 689.77 0.5 685.62 0.5 681.47 0.5 679.27-1.15 677.07-2.8 677.07-7.15ZM795.16-10.35Q795.16-5.1 795.71-3.38 796.26-1.65 797.73-1.65 799.21-1.65 800.28-2.95 801.36-4.25 801.36-6.8L801.36-6.8 801.36-17.7Q801.36-19.85 800.51-21.35 799.66-22.85 798.01-22.85 796.36-22.85 795.76-20.65 795.16-18.45 795.16-12.95L795.16-12.95 795.16-10.35ZM813.11 0L802.01 0 801.46-3.5Q799.76 0.5 794.56 0.5L794.56 0.5Q790.26 0.5 787.88-2.6 785.51-5.7 785.51-11.85L785.51-11.85Q785.51-24.3 795.41-24.3L795.41-24.3Q799.81-24.3 801.21-21.85L801.21-21.85 801.21-36.6 798.16-36.6 798.16-37.5 810.66-37.5 810.66-0.9 813.11-0.9 813.11 0Z" opacity="1" transform="matrix(1,0,0,1,0,0)" fill="#000000" class="slogan-text-1" data-fill-palette-color="secondary" id="text-1"></path></svg></g></svg></g></svg></g></svg></g><g><svg viewBox="0 0 73.34800512036614 114.20717578677862" height="114.20717578677862" width="73.34800512036614"><g><svg xmlns="http://www.w3.org/2000/svg" xmlns:xlink="http://www.w3.org/1999/xlink" version="1.1" x="0" y="0" viewBox="17.999243056844538 1.2903534720206769 59.99942664383791 93.42265075340222" enable-background="new 0 0 96 96" xml:space="preserve" height="114.20717578677862" width="73.34800512036614" class="icon-icon-0" data-fill-palette-color="accent" id="icon-0"></svg></g></svg></g></svg></g><defs></defs><mask id="30227fc7-40fc-4699-803b-4077ed836910"><g id="SvgjsG2730"><svg viewBox="0 0 395.52 94.02077864772538" height="94.02077864772538" width="395.52"><g><svg viewBox="0 0 480.4387159612137 114.20717578677862" height="94.02077864772538" width="395.52"><g transform="matrix(1,0,0,1,84.91871596121369,15.78405975056058)"><svg viewBox="0 0 395.52 82.63905628565746" height="82.63905628565746" width="395.52"><g id="SvgjsG2729"><svg viewBox="0 0 395.52 82.63905628565746" height="82.63905628565746" width="395.52" id="SvgjsSvg2728"><g><svg viewBox="0 0 395.52 49.01265203090339" height="49.01265203090339" width="395.52"><g transform="matrix(1,0,0,1,0,0)"><svg width="395.52" viewBox="2.64 -39.06 319.13 39.550000000000004" height="49.01265203090339" data-palette-color="url(#11dc88b8-2fed-4c29-9e74-e39516044aeb)"><path d="M8.4-12.94L8.4-12.94Q8.08-10.4 8.08-8.9 8.08-7.4 8.45-6.13 8.81-4.86 9.5-3.93L9.5-3.93Q10.96-1.95 13.21-1.95L13.21-1.95Q17.5-1.95 17.5-6.69L17.5-6.69Q17.5-10.5 13.09-14.77L13.09-14.77 10.55-17.24Q7.2-20.46 5.98-22.41L5.98-22.41Q3.56-26.27 3.56-30.08L3.56-30.08Q3.56-33.18 5.57-35.28L5.57-35.28Q7.98-37.84 12.52-37.84L12.52-37.84Q14.31-37.84 15.21-37.67L15.21-37.67Q16.89-37.35 17.46-37.35L17.46-37.35Q18.87-37.35 19.65-38.23L19.65-38.23Q19.95-38.55 20.29-39.06L20.29-39.06Q22.07-38.06 22.07-31.71L22.07-31.71Q22.07-27.66 21.26-25.73L21.26-25.73Q21-25.07 20.65-24.9L20.65-24.9Q20.26-28.59 18.26-31.49L18.26-31.49Q15.92-34.91 12.84-34.91L12.84-34.91Q10.21-34.91 9.59-32.5L9.59-32.5Q9.42-31.81 9.42-30.8 9.42-29.79 10.03-28.49 10.64-27.2 11.63-25.92 12.62-24.63 13.92-23.34L13.92-23.34Q17.82-19.34 19.1-17.92 20.39-16.5 21.39-14.99L21.39-14.99Q23.58-11.6 23.58-8.42L23.58-8.42Q23.58-4.59 20.61-2.08L20.61-2.08Q17.53 0.49 12.7 0.49L12.7 0.49Q8.69 0.49 5.81-1.51L5.81-1.51Q2.64-3.71 2.64-7.32L2.64-7.32Q3.59-10.72 6.79-12.3L6.79-12.3Q7.64-12.74 8.4-12.94ZM53.54 0L45.02 0Q45.33-1.54 45.33-2.45 45.33-3.37 45.3-3.83 45.26-4.3 45.2-4.82 45.14-5.35 45.05-5.99 44.97-6.64 44.89-7.5L44.89-7.5Q44.33-13.33 40.92-17.09L40.92-17.09Q39.4-18.75 37.64-19.62 35.89-20.48 34.75-20.48 33.62-20.48 33.01-20.34L33.01-20.34Q31.64-16.24 31.64-11.77L31.64-11.77Q31.64-7.81 32.05-5.86L32.05-5.86Q32.71-2.93 34.08 0.02L34.08 0.02 26.78 0.02Q27.37-1.44 27.37-6.14 27.37-10.84 28.07-14.93 28.78-19.02 29.92-22.22 31.05-25.42 32.46-27.82 33.86-30.22 35.26-32.02 36.67-33.81 37.91-35.1 39.16-36.38 39.99-37.35L39.99-37.35 47.68-37.35Q46.63-36.16 46.63-34.01L46.63-34.01Q46.63-33.03 46.95-30.81L46.95-30.81 47.56-26.37Q50.9-3.32 53.54 0L53.54 0ZM34.01-22.92L34.01-22.92Q34.96-23.29 36.01-23.29 37.06-23.29 37.9-23.14 38.74-23 39.57-22.66L39.57-22.66Q41.35-21.97 42.55-20.48L42.55-20.48Q41.35-26.76 41.09-28.15L41.09-28.15 40.23-32.42 38.84-30.76Q35.91-27.25 34.01-22.92ZM66.72-23.19L66.72-23.19Q63.89-23.19 63.89-19.85L63.89-19.85Q63.89-5.98 64.35-3.52L64.35-3.52Q64.62-2.03 65.03-1.29L65.03-1.29 65.77 0 57.1 0Q57.88-1.86 58.02-3.1 58.15-4.35 58.25-5.76L58.25-5.76Q58.44-8.64 58.44-13.5L58.44-13.5Q58.44-19.38 58.25-24.24L58.25-24.24 57.98-30.96Q57.88-33.5 57.54-34.5L57.54-34.5Q57-36.08 55.78-37.35L55.78-37.35 68.7-37.35Q74.6-37.35 77.24-36.18L77.24-36.18Q80.02-34.96 80.02-32.01L80.02-32.01Q80.02-29.42 78.1-27.15L78.1-27.15Q76.29-25.05 73.36-23.8L73.36-23.8Q73.73-14.43 79.24-5.81L79.24-5.81Q81.61-2.08 84.08 0L84.08 0 74.92 0Q72.53-3.27 70.5-13.26L70.5-13.26Q69.82-16.72 69.61-19.02 69.4-21.31 69.27-21.79 69.14-22.27 68.84-22.56L68.84-22.56Q68.26-23.19 66.72-23.19ZM72.35-27.55Q73.02-28.27 73.3-29.1 73.58-29.93 73.58-30.7 73.58-31.47 73.37-32.24 73.16-33.01 72.55-33.59L72.55-33.59Q71.21-34.91 67.87-34.91L67.87-34.91Q66.62-34.91 65.85-34.81 65.08-34.72 64.64-34.28L64.64-34.28Q63.89-33.54 63.89-30.54L63.89-30.54Q63.89-27.91 64.45-27.17L64.45-27.17Q65.45-25.88 67.48-25.88 69.5-25.88 70.59-26.35 71.67-26.83 72.35-27.55ZM83.17-26.37L83.17-26.37Q82.59-27.78 82.59-29.71 82.59-31.64 82.73-32.87 82.88-34.11 83.12-35.11L83.12-35.11Q83.71-37.35 84.56-37.35L84.56-37.35 106.07-37.35Q107.49-37.35 107.98-33.15L107.98-33.15Q108.1-31.98 108.1-30.74L108.1-30.74Q108.1-27.81 107.46-26.37L107.46-26.37Q105.36-32.89 102.02-34.72L102.02-34.72Q101.26-35.16 100.53-35.16 99.8-35.16 99.38-34.78 98.97-34.4 98.7-33.57L98.7-33.57Q98.26-32.1 98.26-30.05L98.26-30.05 98.26-20.9 98.28-13.43 98.28-6.35Q98.28-3.96 98.91-2.82 99.53-1.68 100.18-1.1 100.82-0.51 101.7 0L101.7 0 89.23 0Q90.98-1.44 91.47-2.37L91.47-2.37Q92.38-4.05 92.38-6.35L92.38-6.35 92.38-28.34Q92.38-32.18 92.08-33.29 91.79-34.4 91.37-34.78 90.96-35.16 90.23-35.16 89.49-35.16 88.74-34.73 87.98-34.3 87.26-33.61 86.54-32.91 85.89-31.99 85.25-31.08 84.71-30.1L84.71-30.1Q83.66-28.17 83.17-26.37ZM112.44-37.35L120.86-37.35Q119.96-35.08 119.81-32.8 119.67-30.52 119.59-28.88 119.52-27.25 119.47-25.49L119.47-25.49Q119.4-21.39 119.4-18.02L119.4-18.02Q119.4-4.2 120.42-1.07L120.42-1.07Q120.6-0.54 120.86 0L120.86 0 112.44 0Q113.2-1.66 113.34-3 113.49-4.35 113.61-6.2L113.61-6.2Q113.91-10.03 113.91-15.04 113.91-20.04 113.88-21.89 113.86-23.73 113.81-25.49L113.81-25.49Q113.64-34.06 112.78-36.38L112.78-36.38 112.44-37.35ZM140.88-13.18L133.51-26.59Q133.46-24.05 133.46-20.8L133.46-20.8Q133.46-16.19 133.63-10.24 133.8-4.3 133.9-3.48 134-2.66 134.14-2.05L134.14-2.05Q134.39-1.05 134.9 0L134.9 0 128.36 0Q129.09-1.49 129.25-2.92 129.41-4.35 129.5-5.76L129.5-5.76Q129.7-8.64 129.7-13.5L129.7-13.5Q129.7-19.38 129.5-24.24L129.5-24.24 129.24-30.96Q129.09-34.67 128.06-36.23L128.06-36.23Q127.65-36.82 127.04-37.35L127.04-37.35 134.63-37.35Q136.07-34.03 137.68-30.76L137.68-30.76 141-24.27 148.13-11.16Q148.16-12.7 148.16-14.45L148.16-14.45 148.16-18.26Q148.16-30.47 146.67-35.89L146.67-35.89Q146.37-36.89 146.03-37.35L146.03-37.35 153.38-37.38Q152.16-34.94 151.84-23.63L151.84-23.63Q151.79-21.88 151.79-20.26L151.79-20.26 151.82-18.21 151.82-8.25Q151.82-1.93 151.92 0L151.92 0 147.96 0 140.88-13.18ZM200.47 0L191.95 0Q192.27-1.54 192.27-2.45 192.27-3.37 192.23-3.83 192.19-4.3 192.13-4.82 192.07-5.35 191.99-5.99 191.9-6.64 191.83-7.5L191.83-7.5Q191.27-13.33 187.85-17.09L187.85-17.09Q186.34-18.75 184.58-19.62 182.82-20.48 181.68-20.48 180.55-20.48 179.94-20.34L179.94-20.34Q178.57-16.24 178.57-11.77L178.57-11.77Q178.57-7.81 178.99-5.86L178.99-5.86Q179.65-2.93 181.01 0.02L181.01 0.02 173.71 0.02Q174.3-1.44 174.3-6.14 174.3-10.84 175.01-14.93 175.71-19.02 176.85-22.22 177.99-25.42 179.39-27.82 180.79-30.22 182.2-32.02 183.6-33.81 184.85-35.1 186.09-36.38 186.92-37.35L186.92-37.35 194.61-37.35Q193.56-36.16 193.56-34.01L193.56-34.01Q193.56-33.03 193.88-30.81L193.88-30.81 194.49-26.37Q197.83-3.32 200.47 0L200.47 0ZM180.94-22.92L180.94-22.92Q181.89-23.29 182.94-23.29 183.99-23.29 184.83-23.14 185.68-23 186.51-22.66L186.51-22.66Q188.29-21.97 189.48-20.48L189.48-20.48Q188.29-26.76 188.02-28.15L188.02-28.15 187.17-32.42 185.77-30.76Q182.84-27.25 180.94-22.92ZM222.69-9.03L222.69-9.03Q223.34-8.08 223.34-6.74 223.34-5.4 223.16-4.42 222.98-3.44 222.66-2.56L222.66-2.56Q221.93-0.63 220.81 0L220.81 0 201.18 0Q203.11-1.2 203.69-2.08L203.69-2.08Q204.81-3.74 204.81-6.37L204.81-6.37Q204.79-12.87 204.79-18.12L204.79-18.12 204.79-30.91Q204.79-34.45 203.62-36.11L203.62-36.11Q203.2-36.72 202.59-37.35L202.59-37.35 212.63-37.35Q211.19-35.28 210.99-33.08L210.99-33.08Q210.94-32.35 210.94-31.47L210.94-31.47 210.94-9.11Q210.94-4.54 211.43-3.65 211.92-2.76 212.6-2.6 213.29-2.44 214.68-2.44 216.07-2.44 217.31-2.93 218.56-3.42 219.54-4.3L219.54-4.3Q221.2-5.81 222.69-9.03ZM244.92-9.03L244.92-9.03Q245.58-8.08 245.58-6.74 245.58-5.4 245.4-4.42 245.22-3.44 244.9-2.56L244.9-2.56Q244.17-0.63 243.04 0L243.04 0 223.42 0Q225.34-1.2 225.93-2.08L225.93-2.08Q227.05-3.74 227.05-6.37L227.05-6.37Q227.03-12.87 227.03-18.12L227.03-18.12 227.03-30.91Q227.03-34.45 225.86-36.11L225.86-36.11Q225.44-36.72 224.83-37.35L224.83-37.35 234.87-37.35Q233.42-35.28 233.23-33.08L233.23-33.08Q233.18-32.35 233.18-31.47L233.18-31.47 233.18-9.11Q233.18-4.54 233.67-3.65 234.16-2.76 234.84-2.6 235.52-2.44 236.92-2.44 238.31-2.44 239.55-2.93 240.8-3.42 241.77-4.3L241.77-4.3Q243.43-5.81 244.92-9.03ZM261.06-1.95L261.06-1.95Q265.75-1.95 267.11-13.38L267.11-13.38Q267.58-17.24 267.58-22.46L267.58-22.46Q267.58-35.4 261.01-35.4L261.01-35.4Q254.44-35.4 254.44-22.46L254.44-22.46Q254.44-7.2 258.37-3.2L258.37-3.2Q259.59-1.95 261.06-1.95ZM261.01 0.49L261.01 0.49Q254.52 0.49 251.22-5.62L251.22-5.62Q248.05-11.5 248.05-22.46L248.05-22.46Q248.05-33.86 255.05-36.82L255.05-36.82Q257.52-37.84 261.01-37.84L261.01-37.84Q271.02-37.84 273.24-28.96L273.24-28.96Q273.97-26.1 273.97-21.61 273.97-17.11 273.19-12.85 272.41-8.59 270.8-5.62L270.8-5.62Q267.5 0.49 261.01 0.49ZM285.47-5.88L285.47-9.4 285.49-14.5 285.49-17.29Q285.49-19.48 283.69-23.54L283.69-23.54Q282.3-26.59 281.81-27.56L281.81-27.56 281-29.17Q277.85-35.77 275.49-37.35L275.49-37.35 285.32-37.35Q285.15-36.87 285.15-36.11 285.15-35.35 285.28-34.51 285.4-33.67 285.59-32.79L285.59-32.79Q285.96-31.1 286.54-29.69L286.54-29.69 287.72-26.86Q288.33-25.44 289.23-23.97L289.23-23.97Q290.38-25.71 291.06-27.37L291.06-27.37 291.99-29.66Q293.38-33.2 293.38-36.4L293.38-36.4Q293.38-36.94 293.31-37.35L293.31-37.35 300.02-37.35Q298.68-35.94 297.21-33.23 295.75-30.52 295.16-29.3L295.16-29.3 293.92-26.59Q291.38-20.97 291.38-17.6L291.38-17.6 291.38-6.45Q291.38-3.96 291.96-2.86 292.55-1.76 293.21-1.15 293.87-0.54 294.8 0L294.8 0 282.32 0Q285.47-1.61 285.47-5.88L285.47-5.88ZM306.59-12.94L306.59-12.94Q306.27-10.4 306.27-8.9 306.27-7.4 306.64-6.13 307-4.86 307.68-3.93L307.68-3.93Q309.15-1.95 311.4-1.95L311.4-1.95Q315.69-1.95 315.69-6.69L315.69-6.69Q315.69-10.5 311.27-14.77L311.27-14.77 308.73-17.24Q305.39-20.46 304.17-22.41L304.17-22.41Q301.75-26.27 301.75-30.08L301.75-30.08Q301.75-33.18 303.75-35.28L303.75-35.28Q306.17-37.84 310.71-37.84L310.71-37.84Q312.49-37.84 313.4-37.67L313.4-37.67Q315.08-37.35 315.64-37.35L315.64-37.35Q317.06-37.35 317.84-38.23L317.84-38.23Q318.13-38.55 318.48-39.06L318.48-39.06Q320.26-38.06 320.26-31.71L320.26-31.71Q320.26-27.66 319.45-25.73L319.45-25.73Q319.18-25.07 318.84-24.9L318.84-24.9Q318.45-28.59 316.45-31.49L316.45-31.49Q314.11-34.91 311.03-34.91L311.03-34.91Q308.39-34.91 307.78-32.5L307.78-32.5Q307.61-31.81 307.61-30.8 307.61-29.79 308.22-28.49 308.83-27.2 309.82-25.92 310.81-24.63 312.1-23.34L312.1-23.34Q316.01-19.34 317.29-17.92 318.57-16.5 319.57-14.99L319.57-14.99Q321.77-11.6 321.77-8.42L321.77-8.42Q321.77-4.59 318.79-2.08L318.79-2.08Q315.72 0.49 310.88 0.49L310.88 0.49Q306.88 0.49 304-1.51L304-1.51Q300.82-3.71 300.82-7.32L300.82-7.32Q301.78-10.72 304.97-12.3L304.97-12.3Q305.83-12.74 306.59-12.94Z" opacity="1" transform="matrix(1,0,0,1,0,0)" fill="white" class="wordmark-text-0" id="SvgjsPath2727"></path></svg></g></svg></g><g transform="matrix(1,0,0,1,0,60.583362871750936)"><svg viewBox="0 0 395.52 22.055693413906525" height="22.055693413906525" width="395.52"><g transform="matrix(1,0,0,1,0,0)"><svg width="395.52" viewBox="0.75 -37.5 812.36 45.3" height="22.055693413906525" data-palette-color="#50a060"><path d="M0.75-34.05L0.75-35 15.45-35Q23-35 26.7-32.83 30.4-30.65 30.4-25.05L30.4-25.05Q30.4-18.85 25.9-16.5L25.9-16.5Q21.7-14.35 14.15-14.35L14.15-14.35 13.75-14.35 13.75-0.95 20-0.95 20 0 0.75 0 0.75-0.95 4-0.95 4-34.05 0.75-34.05ZM15.1-34.05L13.75-34.05 13.75-15.3 14.8-15.3Q17.8-15.3 18.95-17.35 20.1-19.4 20.1-24L20.1-24 20.1-26.4Q20.1-30.65 19.03-32.35 17.95-34.05 15.1-34.05L15.1-34.05ZM124.24-22.9L122.19-22.9 122.19-23.8 137.14-23.8 137.14-22.9 133.99-22.9 139.99-6.3 145.39-22.9 142.04-22.9 142.04-23.8 148.79-23.8 148.79-22.9 146.59-22.9 139.19 0 133.49 0 124.24-22.9ZM242.52-7.15L242.52-7.15 242.52-22.9 239.77-22.9 239.77-23.8 242.52-23.8 242.52-30.25 251.82-32.55 251.82-23.8 258.32-23.8 258.32-22.9 251.82-22.9 251.82-6.05Q251.82-3.7 252.3-2.6 252.77-1.5 254.27-1.5 255.77-1.5 256.9-3 258.02-4.5 258.37-7.1L258.37-7.1 259.22-7Q258.82-3.55 257.02-1.53 255.22 0.5 251.07 0.5 246.92 0.5 244.72-1.15 242.52-2.8 242.52-7.15ZM354.26 7.8L354.26 7.8 353.66 7.05Q356.76 4.4 357.71 2.93 358.66 1.45 358.66-0.33 358.66-2.1 357.11-2.3L357.11-2.3 354.71-0.15Q353.56-0.55 352.63-1.58 351.71-2.6 351.71-4.23 351.71-5.85 352.88-7 354.06-8.15 356.13-8.15 358.21-8.15 359.51-6.55 360.81-4.95 360.81-2.3 360.81 0.35 359.26 2.8 357.71 5.25 354.26 7.8ZM554.58-33.9L554.58-35 572.58-35 572.58-33.9 567.28-33.9 567.28-1.1 569.08-1.1Q573.33-1.1 575.86-3.7 578.38-6.3 580.98-11.7L580.98-11.7 582.03-11.7 581.08 0 554.58 0 554.58-1.1 557.53-1.1 557.53-33.9 554.58-33.9ZM677.07-7.15L677.07-7.15 677.07-22.9 674.32-22.9 674.32-23.8 677.07-23.8 677.07-30.25 686.37-32.55 686.37-23.8 692.87-23.8 692.87-22.9 686.37-22.9 686.37-6.05Q686.37-3.7 686.84-2.6 687.32-1.5 688.82-1.5 690.32-1.5 691.44-3 692.57-4.5 692.92-7.1L692.92-7.1 693.77-7Q693.37-3.55 691.57-1.53 689.77 0.5 685.62 0.5 681.47 0.5 679.27-1.15 677.07-2.8 677.07-7.15ZM795.16-10.35Q795.16-5.1 795.71-3.38 796.26-1.65 797.73-1.65 799.21-1.65 800.28-2.95 801.36-4.25 801.36-6.8L801.36-6.8 801.36-17.7Q801.36-19.85 800.51-21.35 799.66-22.85 798.01-22.85 796.36-22.85 795.76-20.65 795.16-18.45 795.16-12.95L795.16-12.95 795.16-10.35ZM813.11 0L802.01 0 801.46-3.5Q799.76 0.5 794.56 0.5L794.56 0.5Q790.26 0.5 787.88-2.6 785.51-5.7 785.51-11.85L785.51-11.85Q785.51-24.3 795.41-24.3L795.41-24.3Q799.81-24.3 801.21-21.85L801.21-21.85 801.21-36.6 798.16-36.6 798.16-37.5 810.66-37.5 810.66-0.9 813.11-0.9 813.11 0Z" opacity="1" transform="matrix(1,0,0,1,0,0)" fill="black" class="slogan-text-1" id="SvgjsPath2726"></path></svg></g></svg></g></svg></g></svg></g><g><svg viewBox="0 0 73.34800512036614 114.20717578677862" height="114.20717578677862" width="73.34800512036614"><g><svg xmlns="http://www.w3.org/2000/svg" xmlns:xlink="http://www.w3.org/1999/xlink" version="1.1" x="0" y="0" viewBox="17.999243056844538 1.2903534720206769 59.99942664383791 93.42265075340222" enable-background="new 0 0 96 96" xml:space="preserve" height="114.20717578677862" width="73.34800512036614" class="icon-icon-0" data-fill-palette-color="accent" id="SvgjsSvg2725"><path d="M77.716 91.68L60 62.156V42.712H64C65.1 42.712 66 41.812 66 40.712S65.1 38.712 64 38.712H58C56.9 38.712 56 39.612 56 40.712V58.712H40V40.712C40 39.612 39.104 38.712 38 38.712H32C30.896 38.712 30 39.612 30 40.712S30.896 42.712 32 42.712H36V62.156L18.284 91.68A2 2 0 0 0 18.26 93.696 1.99 1.99 0 0 0 20 94.713H76C76.721 94.713 77.384 94.329 77.744 93.696 78.092 93.072 78.084 92.296 77.716 91.68" fill="black"></path><path d="M61.756 19.272C62.868 17.504 63.82 15.72 64.46 13.996 66.195 9.324 65.876 5.472 63.552 3.16 60.384-0.012 53.964 1.012 47.428 5.024 41.228 1.264 35.344 0.264 32.444 3.16 30.236 5.368 30.044 9.112 31.904 13.712 32.488 15.16 33.316 16.652 34.244 18.16 33.132 19.928 32.18 21.708 31.544 23.432 29.808 28.104 30.128 31.956 32.448 34.268 33.76 35.58 35.624 36.276 37.844 36.276 40.98 36.276 44.756 34.9 48.569 32.512 52.229 34.772 55.78 36.088 58.688 36.088 60.692 36.088 62.38 35.468 63.565 34.28 65.772 32.072 65.968 28.328 64.104 23.728 63.512 22.272 62.684 20.776 61.756 19.272M58.16 5.152C59.312 5.152 60.172 5.428 60.728 5.988 61.839 7.096 61.832 9.572 60.711 12.6A24 24 0 0 1 59.259 15.692C58.091 14.196 56.831 12.712 55.415 11.288 53.979 9.856 52.491 8.604 50.995 7.452 53.641 5.996 56.16 5.152 58.16 5.152M56.948 19.236A39.6 39.6 0 0 1 53.068 23.784 40.5 40.5 0 0 1 48.536 27.672 42.4 42.4 0 0 1 43.412 23.3 43 43 0 0 1 39.048 18.196 40 40 0 0 1 42.928 13.644 40 40 0 0 1 47.468 9.756 42.5 42.5 0 0 1 52.584 14.128 42.6 42.6 0 0 1 56.948 19.236M35.612 12.204C34.444 9.324 34.316 6.94 35.272 5.988 35.696 5.568 36.384 5.348 37.32 5.348 38.94 5.348 41.244 6.032 43.908 7.472 42.616 8.488 41.336 9.58 40.104 10.816 38.884 12.032 37.792 13.304 36.768 14.588 36.328 13.784 35.924 12.988 35.612 12.204M37.84 32.276C36.688 32.276 35.828 32 35.272 31.44 34.16 30.332 34.168 27.856 35.292 24.828A23 23 0 0 1 36.744 21.736C37.912 23.232 39.168 24.716 40.588 26.14A51 51 0 0 0 44.948 30C42.324 31.44 39.828 32.276 37.84 32.276M60.729 31.44C59.573 32.592 56.285 32.192 52.132 29.956 53.408 28.936 54.68 27.84 55.897 26.612 57.121 25.392 58.209 24.124 59.233 22.84 59.669 23.644 60.073 24.44 60.389 25.228 61.552 28.104 61.684 30.488 60.729 31.44" fill="black"></path><path d="M48 12.712C44.692 12.712 42 15.404 42 18.712S44.692 24.712 48 24.712C51.309 24.712 54 22.02 54 18.712S51.309 12.712 48 12.712" fill="black"></path></svg></g></svg></g></svg></g><defs><mask></mask></defs></svg><rect width="395.52" height="94.02077864772538" fill="black" stroke="none" visibility="hidden"></rect></g></mask><linearGradient x1="0" x2="1" y1="0.578" y2="0.595" id="11dc88b8-2fed-4c29-9e74-e39516044aeb"><stop stop-color="#dede50" offset="0"></stop><stop stop-color="#559c49" offset="1"></stop></linearGradient><rect width="395.52" height="94.02077864772538" fill="#000000" mask="url(#30227fc7-40fc-4699-803b-4077ed836910)" data-fill-palette-color="primary"></rect><mask id="5c78af54-a71e-4f1a-84ff-6e403942d6ba"><g id="SvgjsG2741"><svg viewBox="0 0 395.52 94.02077864772538" height="94.02077864772538" width="395.52"><g><svg viewBox="0 0 480.4387159612137 114.20717578677862" height="94.02077864772538" width="395.52"><g transform="matrix(1,0,0,1,84.91871596121369,15.78405975056058)"><svg viewBox="0 0 395.52 82.63905628565746" height="82.63905628565746" width="395.52"><g id="SvgjsG2740"><svg viewBox="0 0 395.52 82.63905628565746" height="82.63905628565746" width="395.52" id="SvgjsSvg2739"><g><svg viewBox="0 0 395.52 49.01265203090339" height="49.01265203090339" width="395.52"><g transform="matrix(1,0,0,1,0,0)"><svg width="395.52" viewBox="2.64 -39.06 319.13 39.550000000000004" height="49.01265203090339" data-palette-color="url(#11dc88b8-2fed-4c29-9e74-e39516044aeb)"></svg></g></svg></g><g transform="matrix(1,0,0,1,0,60.583362871750936)"><svg viewBox="0 0 395.52 22.055693413906525" height="22.055693413906525" width="395.52"><g transform="matrix(1,0,0,1,0,0)"><svg width="395.52" viewBox="0.75 -37.5 812.36 45.3" height="22.055693413906525" data-palette-color="#50a060"><path d="M0.75-34.05L0.75-35 15.45-35Q23-35 26.7-32.83 30.4-30.65 30.4-25.05L30.4-25.05Q30.4-18.85 25.9-16.5L25.9-16.5Q21.7-14.35 14.15-14.35L14.15-14.35 13.75-14.35 13.75-0.95 20-0.95 20 0 0.75 0 0.75-0.95 4-0.95 4-34.05 0.75-34.05ZM15.1-34.05L13.75-34.05 13.75-15.3 14.8-15.3Q17.8-15.3 18.95-17.35 20.1-19.4 20.1-24L20.1-24 20.1-26.4Q20.1-30.65 19.03-32.35 17.95-34.05 15.1-34.05L15.1-34.05ZM124.24-22.9L122.19-22.9 122.19-23.8 137.14-23.8 137.14-22.9 133.99-22.9 139.99-6.3 145.39-22.9 142.04-22.9 142.04-23.8 148.79-23.8 148.79-22.9 146.59-22.9 139.19 0 133.49 0 124.24-22.9ZM242.52-7.15L242.52-7.15 242.52-22.9 239.77-22.9 239.77-23.8 242.52-23.8 242.52-30.25 251.82-32.55 251.82-23.8 258.32-23.8 258.32-22.9 251.82-22.9 251.82-6.05Q251.82-3.7 252.3-2.6 252.77-1.5 254.27-1.5 255.77-1.5 256.9-3 258.02-4.5 258.37-7.1L258.37-7.1 259.22-7Q258.82-3.55 257.02-1.53 255.22 0.5 251.07 0.5 246.92 0.5 244.72-1.15 242.52-2.8 242.52-7.15ZM354.26 7.8L354.26 7.8 353.66 7.05Q356.76 4.4 357.71 2.93 358.66 1.45 358.66-0.33 358.66-2.1 357.11-2.3L357.11-2.3 354.71-0.15Q353.56-0.55 352.63-1.58 351.71-2.6 351.71-4.23 351.71-5.85 352.88-7 354.06-8.15 356.13-8.15 358.21-8.15 359.51-6.55 360.81-4.95 360.81-2.3 360.81 0.35 359.26 2.8 357.71 5.25 354.26 7.8ZM554.58-33.9L554.58-35 572.58-35 572.58-33.9 567.28-33.9 567.28-1.1 569.08-1.1Q573.33-1.1 575.86-3.7 578.38-6.3 580.98-11.7L580.98-11.7 582.03-11.7 581.08 0 554.58 0 554.58-1.1 557.53-1.1 557.53-33.9 554.58-33.9ZM677.07-7.15L677.07-7.15 677.07-22.9 674.32-22.9 674.32-23.8 677.07-23.8 677.07-30.25 686.37-32.55 686.37-23.8 692.87-23.8 692.87-22.9 686.37-22.9 686.37-6.05Q686.37-3.7 686.84-2.6 687.32-1.5 688.82-1.5 690.32-1.5 691.44-3 692.57-4.5 692.92-7.1L692.92-7.1 693.77-7Q693.37-3.55 691.57-1.53 689.77 0.5 685.62 0.5 681.47 0.5 679.27-1.15 677.07-2.8 677.07-7.15ZM795.16-10.35Q795.16-5.1 795.71-3.38 796.26-1.65 797.73-1.65 799.21-1.65 800.28-2.95 801.36-4.25 801.36-6.8L801.36-6.8 801.36-17.7Q801.36-19.85 800.51-21.35 799.66-22.85 798.01-22.85 796.36-22.85 795.76-20.65 795.16-18.45 795.16-12.95L795.16-12.95 795.16-10.35ZM813.11 0L802.01 0 801.46-3.5Q799.76 0.5 794.56 0.5L794.56 0.5Q790.26 0.5 787.88-2.6 785.51-5.7 785.51-11.85L785.51-11.85Q785.51-24.3 795.41-24.3L795.41-24.3Q799.81-24.3 801.21-21.85L801.21-21.85 801.21-36.6 798.16-36.6 798.16-37.5 810.66-37.5 810.66-0.9 813.11-0.9 813.11 0Z" opacity="1" transform="matrix(1,0,0,1,0,0)" fill="black" class="slogan-text-1" id="SvgjsPath2738"></path></svg></g></svg></g></svg></g></svg></g><g><svg viewBox="0 0 73.34800512036614 114.20717578677862" height="114.20717578677862" width="73.34800512036614"><g><svg xmlns="http://www.w3.org/2000/svg" xmlns:xlink="http://www.w3.org/1999/xlink" version="1.1" x="0" y="0" viewBox="17.999243056844538 1.2903534720206769 59.99942664383791 93.42265075340222" enable-background="new 0 0 96 96" xml:space="preserve" height="114.20717578677862" width="73.34800512036614" class="icon-icon-0" data-fill-palette-color="accent" id="SvgjsSvg2737"><path d="M77.716 91.68L60 62.156V42.712H64C65.1 42.712 66 41.812 66 40.712S65.1 38.712 64 38.712H58C56.9 38.712 56 39.612 56 40.712V58.712H40V40.712C40 39.612 39.104 38.712 38 38.712H32C30.896 38.712 30 39.612 30 40.712S30.896 42.712 32 42.712H36V62.156L18.284 91.68A2 2 0 0 0 18.26 93.696 1.99 1.99 0 0 0 20 94.713H76C76.721 94.713 77.384 94.329 77.744 93.696 78.092 93.072 78.084 92.296 77.716 91.68" fill="white"></path><path d="M61.756 19.272C62.868 17.504 63.82 15.72 64.46 13.996 66.195 9.324 65.876 5.472 63.552 3.16 60.384-0.012 53.964 1.012 47.428 5.024 41.228 1.264 35.344 0.264 32.444 3.16 30.236 5.368 30.044 9.112 31.904 13.712 32.488 15.16 33.316 16.652 34.244 18.16 33.132 19.928 32.18 21.708 31.544 23.432 29.808 28.104 30.128 31.956 32.448 34.268 33.76 35.58 35.624 36.276 37.844 36.276 40.98 36.276 44.756 34.9 48.569 32.512 52.229 34.772 55.78 36.088 58.688 36.088 60.692 36.088 62.38 35.468 63.565 34.28 65.772 32.072 65.968 28.328 64.104 23.728 63.512 22.272 62.684 20.776 61.756 19.272M58.16 5.152C59.312 5.152 60.172 5.428 60.728 5.988 61.839 7.096 61.832 9.572 60.711 12.6A24 24 0 0 1 59.259 15.692C58.091 14.196 56.831 12.712 55.415 11.288 53.979 9.856 52.491 8.604 50.995 7.452 53.641 5.996 56.16 5.152 58.16 5.152M56.948 19.236A39.6 39.6 0 0 1 53.068 23.784 40.5 40.5 0 0 1 48.536 27.672 42.4 42.4 0 0 1 43.412 23.3 43 43 0 0 1 39.048 18.196 40 40 0 0 1 42.928 13.644 40 40 0 0 1 47.468 9.756 42.5 42.5 0 0 1 52.584 14.128 42.6 42.6 0 0 1 56.948 19.236M35.612 12.204C34.444 9.324 34.316 6.94 35.272 5.988 35.696 5.568 36.384 5.348 37.32 5.348 38.94 5.348 41.244 6.032 43.908 7.472 42.616 8.488 41.336 9.58 40.104 10.816 38.884 12.032 37.792 13.304 36.768 14.588 36.328 13.784 35.924 12.988 35.612 12.204M37.84 32.276C36.688 32.276 35.828 32 35.272 31.44 34.16 30.332 34.168 27.856 35.292 24.828A23 23 0 0 1 36.744 21.736C37.912 23.232 39.168 24.716 40.588 26.14A51 51 0 0 0 44.948 30C42.324 31.44 39.828 32.276 37.84 32.276M60.729 31.44C59.573 32.592 56.285 32.192 52.132 29.956 53.408 28.936 54.68 27.84 55.897 26.612 57.121 25.392 58.209 24.124 59.233 22.84 59.669 23.644 60.073 24.44 60.389 25.228 61.552 28.104 61.684 30.488 60.729 31.44" fill="white"></path><path d="M48 12.712C44.692 12.712 42 15.404 42 18.712S44.692 24.712 48 24.712C51.309 24.712 54 22.02 54 18.712S51.309 12.712 48 12.712" fill="white"></path></svg></g></svg></g></svg></g><defs><mask></mask></defs><mask><g id="SvgjsG2736"><svg viewBox="0 0 395.52 94.02077864772538" height="94.02077864772538" width="395.52"><g><svg viewBox="0 0 480.4387159612137 114.20717578677862" height="94.02077864772538" width="395.52"><g transform="matrix(1,0,0,1,84.91871596121369,15.78405975056058)"><svg viewBox="0 0 395.52 82.63905628565746" height="82.63905628565746" width="395.52"><g id="SvgjsG2735"><svg viewBox="0 0 395.52 82.63905628565746" height="82.63905628565746" width="395.52" id="SvgjsSvg2734"><g><svg viewBox="0 0 395.52 49.01265203090339" height="49.01265203090339" width="395.52"><g transform="matrix(1,0,0,1,0,0)"><svg width="395.52" viewBox="2.64 -39.06 319.13 39.550000000000004" height="49.01265203090339" data-palette-color="url(#11dc88b8-2fed-4c29-9e74-e39516044aeb)"><path d="M8.4-12.94L8.4-12.94Q8.08-10.4 8.08-8.9 8.08-7.4 8.45-6.13 8.81-4.86 9.5-3.93L9.5-3.93Q10.96-1.95 13.21-1.95L13.21-1.95Q17.5-1.95 17.5-6.69L17.5-6.69Q17.5-10.5 13.09-14.77L13.09-14.77 10.55-17.24Q7.2-20.46 5.98-22.41L5.98-22.41Q3.56-26.27 3.56-30.08L3.56-30.08Q3.56-33.18 5.57-35.28L5.57-35.28Q7.98-37.84 12.52-37.84L12.52-37.84Q14.31-37.84 15.21-37.67L15.21-37.67Q16.89-37.35 17.46-37.35L17.46-37.35Q18.87-37.35 19.65-38.23L19.65-38.23Q19.95-38.55 20.29-39.06L20.29-39.06Q22.07-38.06 22.07-31.71L22.07-31.71Q22.07-27.66 21.26-25.73L21.26-25.73Q21-25.07 20.65-24.9L20.65-24.9Q20.26-28.59 18.26-31.49L18.26-31.49Q15.92-34.91 12.84-34.91L12.84-34.91Q10.21-34.91 9.59-32.5L9.59-32.5Q9.42-31.81 9.42-30.8 9.42-29.79 10.03-28.49 10.64-27.2 11.63-25.92 12.62-24.63 13.92-23.34L13.92-23.34Q17.82-19.34 19.1-17.92 20.39-16.5 21.39-14.99L21.39-14.99Q23.58-11.6 23.58-8.42L23.58-8.42Q23.58-4.59 20.61-2.08L20.61-2.08Q17.53 0.49 12.7 0.49L12.7 0.49Q8.69 0.49 5.81-1.51L5.81-1.51Q2.64-3.71 2.64-7.32L2.64-7.32Q3.59-10.72 6.79-12.3L6.79-12.3Q7.64-12.74 8.4-12.94ZM53.54 0L45.02 0Q45.33-1.54 45.33-2.45 45.33-3.37 45.3-3.83 45.26-4.3 45.2-4.82 45.14-5.35 45.05-5.99 44.97-6.64 44.89-7.5L44.89-7.5Q44.33-13.33 40.92-17.09L40.92-17.09Q39.4-18.75 37.64-19.62 35.89-20.48 34.75-20.48 33.62-20.48 33.01-20.34L33.01-20.34Q31.64-16.24 31.64-11.77L31.64-11.77Q31.64-7.81 32.05-5.86L32.05-5.86Q32.71-2.93 34.08 0.02L34.08 0.02 26.78 0.02Q27.37-1.44 27.37-6.14 27.37-10.84 28.07-14.93 28.78-19.02 29.92-22.22 31.05-25.42 32.46-27.82 33.86-30.22 35.26-32.02 36.67-33.81 37.91-35.1 39.16-36.38 39.99-37.35L39.99-37.35 47.68-37.35Q46.63-36.16 46.63-34.01L46.63-34.01Q46.63-33.03 46.95-30.81L46.95-30.81 47.56-26.37Q50.9-3.32 53.54 0L53.54 0ZM34.01-22.92L34.01-22.92Q34.96-23.29 36.01-23.29 37.06-23.29 37.9-23.14 38.74-23 39.57-22.66L39.57-22.66Q41.35-21.97 42.55-20.48L42.55-20.48Q41.35-26.76 41.09-28.15L41.09-28.15 40.23-32.42 38.84-30.76Q35.91-27.25 34.01-22.92ZM66.72-23.19L66.72-23.19Q63.89-23.19 63.89-19.85L63.89-19.85Q63.89-5.98 64.35-3.52L64.35-3.52Q64.62-2.03 65.03-1.29L65.03-1.29 65.77 0 57.1 0Q57.88-1.86 58.02-3.1 58.15-4.35 58.25-5.76L58.25-5.76Q58.44-8.64 58.44-13.5L58.44-13.5Q58.44-19.38 58.25-24.24L58.25-24.24 57.98-30.96Q57.88-33.5 57.54-34.5L57.54-34.5Q57-36.08 55.78-37.35L55.78-37.35 68.7-37.35Q74.6-37.35 77.24-36.18L77.24-36.18Q80.02-34.96 80.02-32.01L80.02-32.01Q80.02-29.42 78.1-27.15L78.1-27.15Q76.29-25.05 73.36-23.8L73.36-23.8Q73.73-14.43 79.24-5.81L79.24-5.81Q81.61-2.08 84.08 0L84.08 0 74.92 0Q72.53-3.27 70.5-13.26L70.5-13.26Q69.82-16.72 69.61-19.02 69.4-21.31 69.27-21.79 69.14-22.27 68.84-22.56L68.84-22.56Q68.26-23.19 66.72-23.19ZM72.35-27.55Q73.02-28.27 73.3-29.1 73.58-29.93 73.58-30.7 73.58-31.47 73.37-32.24 73.16-33.01 72.55-33.59L72.55-33.59Q71.21-34.91 67.87-34.91L67.87-34.91Q66.62-34.91 65.85-34.81 65.08-34.72 64.64-34.28L64.64-34.28Q63.89-33.54 63.89-30.54L63.89-30.54Q63.89-27.91 64.45-27.17L64.45-27.17Q65.45-25.88 67.48-25.88 69.5-25.88 70.59-26.35 71.67-26.83 72.35-27.55ZM83.17-26.37L83.17-26.37Q82.59-27.78 82.59-29.71 82.59-31.64 82.73-32.87 82.88-34.11 83.12-35.11L83.12-35.11Q83.71-37.35 84.56-37.35L84.56-37.35 106.07-37.35Q107.49-37.35 107.98-33.15L107.98-33.15Q108.1-31.98 108.1-30.74L108.1-30.74Q108.1-27.81 107.46-26.37L107.46-26.37Q105.36-32.89 102.02-34.72L102.02-34.72Q101.26-35.16 100.53-35.16 99.8-35.16 99.38-34.78 98.97-34.4 98.7-33.57L98.7-33.57Q98.26-32.1 98.26-30.05L98.26-30.05 98.26-20.9 98.28-13.43 98.28-6.35Q98.28-3.96 98.91-2.82 99.53-1.68 100.18-1.1 100.82-0.51 101.7 0L101.7 0 89.23 0Q90.98-1.44 91.47-2.37L91.47-2.37Q92.38-4.05 92.38-6.35L92.38-6.35 92.38-28.34Q92.38-32.18 92.08-33.29 91.79-34.4 91.37-34.78 90.96-35.16 90.23-35.16 89.49-35.16 88.74-34.73 87.98-34.3 87.26-33.61 86.54-32.91 85.89-31.99 85.25-31.08 84.71-30.1L84.71-30.1Q83.66-28.17 83.17-26.37ZM112.44-37.35L120.86-37.35Q119.96-35.08 119.81-32.8 119.67-30.52 119.59-28.88 119.52-27.25 119.47-25.49L119.47-25.49Q119.4-21.39 119.4-18.02L119.4-18.02Q119.4-4.2 120.42-1.07L120.42-1.07Q120.6-0.54 120.86 0L120.86 0 112.44 0Q113.2-1.66 113.34-3 113.49-4.35 113.61-6.2L113.61-6.2Q113.91-10.03 113.91-15.04 113.91-20.04 113.88-21.89 113.86-23.73 113.81-25.49L113.81-25.49Q113.64-34.06 112.78-36.38L112.78-36.38 112.44-37.35ZM140.88-13.18L133.51-26.59Q133.46-24.05 133.46-20.8L133.46-20.8Q133.46-16.19 133.63-10.24 133.8-4.3 133.9-3.48 134-2.66 134.14-2.05L134.14-2.05Q134.39-1.05 134.9 0L134.9 0 128.36 0Q129.09-1.49 129.25-2.92 129.41-4.35 129.5-5.76L129.5-5.76Q129.7-8.64 129.7-13.5L129.7-13.5Q129.7-19.38 129.5-24.24L129.5-24.24 129.24-30.96Q129.09-34.67 128.06-36.23L128.06-36.23Q127.65-36.82 127.04-37.35L127.04-37.35 134.63-37.35Q136.07-34.03 137.68-30.76L137.68-30.76 141-24.27 148.13-11.16Q148.16-12.7 148.16-14.45L148.16-14.45 148.16-18.26Q148.16-30.47 146.67-35.89L146.67-35.89Q146.37-36.89 146.03-37.35L146.03-37.35 153.38-37.38Q152.16-34.94 151.84-23.63L151.84-23.63Q151.79-21.88 151.79-20.26L151.79-20.26 151.82-18.21 151.82-8.25Q151.82-1.93 151.92 0L151.92 0 147.96 0 140.88-13.18ZM200.47 0L191.95 0Q192.27-1.54 192.27-2.45 192.27-3.37 192.23-3.83 192.19-4.3 192.13-4.82 192.07-5.35 191.99-5.99 191.9-6.64 191.83-7.5L191.83-7.5Q191.27-13.33 187.85-17.09L187.85-17.09Q186.34-18.75 184.58-19.62 182.82-20.48 181.68-20.48 180.55-20.48 179.94-20.34L179.94-20.34Q178.57-16.24 178.57-11.77L178.57-11.77Q178.57-7.81 178.99-5.86L178.99-5.86Q179.65-2.93 181.01 0.02L181.01 0.02 173.71 0.02Q174.3-1.44 174.3-6.14 174.3-10.84 175.01-14.93 175.71-19.02 176.85-22.22 177.99-25.42 179.39-27.82 180.79-30.22 182.2-32.02 183.6-33.81 184.85-35.1 186.09-36.38 186.92-37.35L186.92-37.35 194.61-37.35Q193.56-36.16 193.56-34.01L193.56-34.01Q193.56-33.03 193.88-30.81L193.88-30.81 194.49-26.37Q197.83-3.32 200.47 0L200.47 0ZM180.94-22.92L180.94-22.92Q181.89-23.29 182.94-23.29 183.99-23.29 184.83-23.14 185.68-23 186.51-22.66L186.51-22.66Q188.29-21.97 189.48-20.48L189.48-20.48Q188.29-26.76 188.02-28.15L188.02-28.15 187.17-32.42 185.77-30.76Q182.84-27.25 180.94-22.92ZM222.69-9.03L222.69-9.03Q223.34-8.08 223.34-6.74 223.34-5.4 223.16-4.42 222.98-3.44 222.66-2.56L222.66-2.56Q221.93-0.63 220.81 0L220.81 0 201.18 0Q203.11-1.2 203.69-2.08L203.69-2.08Q204.81-3.74 204.81-6.37L204.81-6.37Q204.79-12.87 204.79-18.12L204.79-18.12 204.79-30.91Q204.79-34.45 203.62-36.11L203.62-36.11Q203.2-36.72 202.59-37.35L202.59-37.35 212.63-37.35Q211.19-35.28 210.99-33.08L210.99-33.08Q210.94-32.35 210.94-31.47L210.94-31.47 210.94-9.11Q210.94-4.54 211.43-3.65 211.92-2.76 212.6-2.6 213.29-2.44 214.68-2.44 216.07-2.44 217.31-2.93 218.56-3.42 219.54-4.3L219.54-4.3Q221.2-5.81 222.69-9.03ZM244.92-9.03L244.92-9.03Q245.58-8.08 245.58-6.74 245.58-5.4 245.4-4.42 245.22-3.44 244.9-2.56L244.9-2.56Q244.17-0.63 243.04 0L243.04 0 223.42 0Q225.34-1.2 225.93-2.08L225.93-2.08Q227.05-3.74 227.05-6.37L227.05-6.37Q227.03-12.87 227.03-18.12L227.03-18.12 227.03-30.91Q227.03-34.45 225.86-36.11L225.86-36.11Q225.44-36.72 224.83-37.35L224.83-37.35 234.87-37.35Q233.42-35.28 233.23-33.08L233.23-33.08Q233.18-32.35 233.18-31.47L233.18-31.47 233.18-9.11Q233.18-4.54 233.67-3.65 234.16-2.76 234.84-2.6 235.52-2.44 236.92-2.44 238.31-2.44 239.55-2.93 240.8-3.42 241.77-4.3L241.77-4.3Q243.43-5.81 244.92-9.03ZM261.06-1.95L261.06-1.95Q265.75-1.95 267.11-13.38L267.11-13.38Q267.58-17.24 267.58-22.46L267.58-22.46Q267.58-35.4 261.01-35.4L261.01-35.4Q254.44-35.4 254.44-22.46L254.44-22.46Q254.44-7.2 258.37-3.2L258.37-3.2Q259.59-1.95 261.06-1.95ZM261.01 0.49L261.01 0.49Q254.52 0.49 251.22-5.62L251.22-5.62Q248.05-11.5 248.05-22.46L248.05-22.46Q248.05-33.86 255.05-36.82L255.05-36.82Q257.52-37.84 261.01-37.84L261.01-37.84Q271.02-37.84 273.24-28.96L273.24-28.96Q273.97-26.1 273.97-21.61 273.97-17.11 273.19-12.85 272.41-8.59 270.8-5.62L270.8-5.62Q267.5 0.49 261.01 0.49ZM285.47-5.88L285.47-9.4 285.49-14.5 285.49-17.29Q285.49-19.48 283.69-23.54L283.69-23.54Q282.3-26.59 281.81-27.56L281.81-27.56 281-29.17Q277.85-35.77 275.49-37.35L275.49-37.35 285.32-37.35Q285.15-36.87 285.15-36.11 285.15-35.35 285.28-34.51 285.4-33.67 285.59-32.79L285.59-32.79Q285.96-31.1 286.54-29.69L286.54-29.69 287.72-26.86Q288.33-25.44 289.23-23.97L289.23-23.97Q290.38-25.71 291.06-27.37L291.06-27.37 291.99-29.66Q293.38-33.2 293.38-36.4L293.38-36.4Q293.38-36.94 293.31-37.35L293.31-37.35 300.02-37.35Q298.68-35.94 297.21-33.23 295.75-30.52 295.16-29.3L295.16-29.3 293.92-26.59Q291.38-20.97 291.38-17.6L291.38-17.6 291.38-6.45Q291.38-3.96 291.96-2.86 292.55-1.76 293.21-1.15 293.87-0.54 294.8 0L294.8 0 282.32 0Q285.47-1.61 285.47-5.88L285.47-5.88ZM306.59-12.94L306.59-12.94Q306.27-10.4 306.27-8.9 306.27-7.4 306.64-6.13 307-4.86 307.68-3.93L307.68-3.93Q309.15-1.95 311.4-1.95L311.4-1.95Q315.69-1.95 315.69-6.69L315.69-6.69Q315.69-10.5 311.27-14.77L311.27-14.77 308.73-17.24Q305.39-20.46 304.17-22.41L304.17-22.41Q301.75-26.27 301.75-30.08L301.75-30.08Q301.75-33.18 303.75-35.28L303.75-35.28Q306.17-37.84 310.71-37.84L310.71-37.84Q312.49-37.84 313.4-37.67L313.4-37.67Q315.08-37.35 315.64-37.35L315.64-37.35Q317.06-37.35 317.84-38.23L317.84-38.23Q318.13-38.55 318.48-39.06L318.48-39.06Q320.26-38.06 320.26-31.71L320.26-31.71Q320.26-27.66 319.45-25.73L319.45-25.73Q319.18-25.07 318.84-24.9L318.84-24.9Q318.45-28.59 316.45-31.49L316.45-31.49Q314.11-34.91 311.03-34.91L311.03-34.91Q308.39-34.91 307.78-32.5L307.78-32.5Q307.61-31.81 307.61-30.8 307.61-29.79 308.22-28.49 308.83-27.2 309.82-25.92 310.81-24.63 312.1-23.34L312.1-23.34Q316.01-19.34 317.29-17.92 318.57-16.5 319.57-14.99L319.57-14.99Q321.77-11.6 321.77-8.42L321.77-8.42Q321.77-4.59 318.79-2.08L318.79-2.08Q315.72 0.49 310.88 0.49L310.88 0.49Q306.88 0.49 304-1.51L304-1.51Q300.82-3.71 300.82-7.32L300.82-7.32Q301.78-10.72 304.97-12.3L304.97-12.3Q305.83-12.74 306.59-12.94Z" opacity="1" transform="matrix(1,0,0,1,0,0)" fill="black" class="wordmark-text-0" id="SvgjsPath2733"></path></svg></g></svg></g><g transform="matrix(1,0,0,1,0,60.583362871750936)"><svg viewBox="0 0 395.52 22.055693413906525" height="22.055693413906525" width="395.52"><g transform="matrix(1,0,0,1,0,0)"><svg width="395.52" viewBox="0.75 -37.5 812.36 45.3" height="22.055693413906525" data-palette-color="#50a060"><path d="M0.75-34.05L0.75-35 15.45-35Q23-35 26.7-32.83 30.4-30.65 30.4-25.05L30.4-25.05Q30.4-18.85 25.9-16.5L25.9-16.5Q21.7-14.35 14.15-14.35L14.15-14.35 13.75-14.35 13.75-0.95 20-0.95 20 0 0.75 0 0.75-0.95 4-0.95 4-34.05 0.75-34.05ZM15.1-34.05L13.75-34.05 13.75-15.3 14.8-15.3Q17.8-15.3 18.95-17.35 20.1-19.4 20.1-24L20.1-24 20.1-26.4Q20.1-30.65 19.03-32.35 17.95-34.05 15.1-34.05L15.1-34.05ZM124.24-22.9L122.19-22.9 122.19-23.8 137.14-23.8 137.14-22.9 133.99-22.9 139.99-6.3 145.39-22.9 142.04-22.9 142.04-23.8 148.79-23.8 148.79-22.9 146.59-22.9 139.19 0 133.49 0 124.24-22.9ZM242.52-7.15L242.52-7.15 242.52-22.9 239.77-22.9 239.77-23.8 242.52-23.8 242.52-30.25 251.82-32.55 251.82-23.8 258.32-23.8 258.32-22.9 251.82-22.9 251.82-6.05Q251.82-3.7 252.3-2.6 252.77-1.5 254.27-1.5 255.77-1.5 256.9-3 258.02-4.5 258.37-7.1L258.37-7.1 259.22-7Q258.82-3.55 257.02-1.53 255.22 0.5 251.07 0.5 246.92 0.5 244.72-1.15 242.52-2.8 242.52-7.15ZM354.26 7.8L354.26 7.8 353.66 7.05Q356.76 4.4 357.71 2.93 358.66 1.45 358.66-0.33 358.66-2.1 357.11-2.3L357.11-2.3 354.71-0.15Q353.56-0.55 352.63-1.58 351.71-2.6 351.71-4.23 351.71-5.85 352.88-7 354.06-8.15 356.13-8.15 358.21-8.15 359.51-6.55 360.81-4.95 360.81-2.3 360.81 0.35 359.26 2.8 357.71 5.25 354.26 7.8ZM554.58-33.9L554.58-35 572.58-35 572.58-33.9 567.28-33.9 567.28-1.1 569.08-1.1Q573.33-1.1 575.86-3.7 578.38-6.3 580.98-11.7L580.98-11.7 582.03-11.7 581.08 0 554.58 0 554.58-1.1 557.53-1.1 557.53-33.9 554.58-33.9ZM677.07-7.15L677.07-7.15 677.07-22.9 674.32-22.9 674.32-23.8 677.07-23.8 677.07-30.25 686.37-32.55 686.37-23.8 692.87-23.8 692.87-22.9 686.37-22.9 686.37-6.05Q686.37-3.7 686.84-2.6 687.32-1.5 688.82-1.5 690.32-1.5 691.44-3 692.57-4.5 692.92-7.1L692.92-7.1 693.77-7Q693.37-3.55 691.57-1.53 689.77 0.5 685.62 0.5 681.47 0.5 679.27-1.15 677.07-2.8 677.07-7.15ZM795.16-10.35Q795.16-5.1 795.71-3.38 796.26-1.65 797.73-1.65 799.21-1.65 800.28-2.95 801.36-4.25 801.36-6.8L801.36-6.8 801.36-17.7Q801.36-19.85 800.51-21.35 799.66-22.85 798.01-22.85 796.36-22.85 795.76-20.65 795.16-18.45 795.16-12.95L795.16-12.95 795.16-10.35ZM813.11 0L802.01 0 801.46-3.5Q799.76 0.5 794.56 0.5L794.56 0.5Q790.26 0.5 787.88-2.6 785.51-5.7 785.51-11.85L785.51-11.85Q785.51-24.3 795.41-24.3L795.41-24.3Q799.81-24.3 801.21-21.85L801.21-21.85 801.21-36.6 798.16-36.6 798.16-37.5 810.66-37.5 810.66-0.9 813.11-0.9 813.11 0Z" opacity="1" transform="matrix(1,0,0,1,0,0)" fill="black" class="slogan-text-1" id="SvgjsPath2732"></path></svg></g></svg></g></svg></g></svg></g><g><svg viewBox="0 0 73.34800512036614 114.20717578677862" height="114.20717578677862" width="73.34800512036614"><g><svg xmlns="http://www.w3.org/2000/svg" xmlns:xlink="http://www.w3.org/1999/xlink" version="1.1" x="0" y="0" viewBox="17.999243056844538 1.2903534720206769 59.99942664383791 93.42265075340222" enable-background="new 0 0 96 96" xml:space="preserve" height="114.20717578677862" width="73.34800512036614" class="icon-icon-0" data-fill-palette-color="accent" id="SvgjsSvg2731"><path d="M77.716 91.68L60 62.156V42.712H64C65.1 42.712 66 41.812 66 40.712S65.1 38.712 64 38.712H58C56.9 38.712 56 39.612 56 40.712V58.712H40V40.712C40 39.612 39.104 38.712 38 38.712H32C30.896 38.712 30 39.612 30 40.712S30.896 42.712 32 42.712H36V62.156L18.284 91.68A2 2 0 0 0 18.26 93.696 1.99 1.99 0 0 0 20 94.713H76C76.721 94.713 77.384 94.329 77.744 93.696 78.092 93.072 78.084 92.296 77.716 91.68" fill="black"></path><path d="M61.756 19.272C62.868 17.504 63.82 15.72 64.46 13.996 66.195 9.324 65.876 5.472 63.552 3.16 60.384-0.012 53.964 1.012 47.428 5.024 41.228 1.264 35.344 0.264 32.444 3.16 30.236 5.368 30.044 9.112 31.904 13.712 32.488 15.16 33.316 16.652 34.244 18.16 33.132 19.928 32.18 21.708 31.544 23.432 29.808 28.104 30.128 31.956 32.448 34.268 33.76 35.58 35.624 36.276 37.844 36.276 40.98 36.276 44.756 34.9 48.569 32.512 52.229 34.772 55.78 36.088 58.688 36.088 60.692 36.088 62.38 35.468 63.565 34.28 65.772 32.072 65.968 28.328 64.104 23.728 63.512 22.272 62.684 20.776 61.756 19.272M58.16 5.152C59.312 5.152 60.172 5.428 60.728 5.988 61.839 7.096 61.832 9.572 60.711 12.6A24 24 0 0 1 59.259 15.692C58.091 14.196 56.831 12.712 55.415 11.288 53.979 9.856 52.491 8.604 50.995 7.452 53.641 5.996 56.16 5.152 58.16 5.152M56.948 19.236A39.6 39.6 0 0 1 53.068 23.784 40.5 40.5 0 0 1 48.536 27.672 42.4 42.4 0 0 1 43.412 23.3 43 43 0 0 1 39.048 18.196 40 40 0 0 1 42.928 13.644 40 40 0 0 1 47.468 9.756 42.5 42.5 0 0 1 52.584 14.128 42.6 42.6 0 0 1 56.948 19.236M35.612 12.204C34.444 9.324 34.316 6.94 35.272 5.988 35.696 5.568 36.384 5.348 37.32 5.348 38.94 5.348 41.244 6.032 43.908 7.472 42.616 8.488 41.336 9.58 40.104 10.816 38.884 12.032 37.792 13.304 36.768 14.588 36.328 13.784 35.924 12.988 35.612 12.204M37.84 32.276C36.688 32.276 35.828 32 35.272 31.44 34.16 30.332 34.168 27.856 35.292 24.828A23 23 0 0 1 36.744 21.736C37.912 23.232 39.168 24.716 40.588 26.14A51 51 0 0 0 44.948 30C42.324 31.44 39.828 32.276 37.84 32.276M60.729 31.44C59.573 32.592 56.285 32.192 52.132 29.956 53.408 28.936 54.68 27.84 55.897 26.612 57.121 25.392 58.209 24.124 59.233 22.84 59.669 23.644 60.073 24.44 60.389 25.228 61.552 28.104 61.684 30.488 60.729 31.44" fill="black"></path><path d="M48 12.712C44.692 12.712 42 15.404 42 18.712S44.692 24.712 48 24.712C51.309 24.712 54 22.02 54 18.712S51.309 12.712 48 12.712" fill="black"></path></svg></g></svg></g></svg></g><defs><mask></mask></defs></svg><rect width="395.52" height="94.02077864772538" fill="black" stroke="none" visibility="hidden"></rect></g></mask></svg><rect width="395.52" height="94.02077864772538" fill="black" stroke="none" visibility="hidden"></rect></g></mask><linearGradient x1="0" x2="1" y1="0.578" y2="0.595" id="8c448545-612f-4861-a797-ab76ad9d3d9a"><stop stop-color="#dede50" offset="0"></stop><stop stop-color="#559c49" offset="1"></stop></linearGradient><rect width="395.52" height="94.02077864772538" fill="#000000" mask="url(#5c78af54-a71e-4f1a-84ff-6e403942d6ba)" data-fill-palette-color="accent"></rect></svg><rect width="395.52" height="94.02077864772538" fill="none" stroke="none" visibility="hidden"></rect></g></svg></g></svg>